<svg xmlns="http://www.w3.org/2000/svg" xmlns:xlink="http://www.w3.org/1999/xlink" xmlns:blush="http://design.blush" viewBox="0 -9.633027522935777 893.7499999999999 619.2660550458716" fill="none" overflow="visible" width="893.7499999999999px" height="619.2660550458716px"><g id="Master/Horizontal Scenes/Unlock" blush:has-customizable-colors="true" blush:viewBox="0 -4.945054945054949 1099.9999999999998 609.89010989011" blush:i="0"><g id="Background" style="mix-blend-mode:soft-light" blush:component="Background" blush:defaultValue="Triangles" blush:width="600" blush:height="600" transform="translate(250 0) scale(1 1)" blush:i="0.0" blush:value="Hypnotize" blush:viewBox="36 45 528.0000000000001 510.0000000000001"><g id="Background/Hypnotize" blush:viewBox="36 45 528.0000000000001 510.0000000000001" blush:i="0.0.0"><path id="Path" d="M562.49 290C558.49 226.36 533.78 167.79 496.42 133.33C463.29 102.79 435.75 83.7101 407.14 71.4701C371.38 56.1801 334.46 52.2501 294.24 59.4701C265.69 64.5801 232.34 79.2301 207.24 97.6901C180.05 117.69 161.54 138.83 148.99 164.31C135.77 191.14 130.5 220.9 127.08 246.48C119.14 305.9 137.88 358.48 184.36 407.31C216.69 441.25 265.66 455.53 313.49 455.53C340.4 455.53 366.95 451.01 389.96 442.93C410.26 435.81 426.41 425.18 439.34 410.44C450.55 397.65 459.62 381.5 467.86 359.61C478.196 332.139 480.814 302.363 475.43 273.51C468.91 239.83 450.98 210.23 423.6 187.91C398.25 167.26 367.11 154.31 335.9 151.43C303.49 148.43 273.71 156.51 252.06 174.13C233.299 189.769 218.811 209.91 209.95 232.67C195.71 270.54 207.23 306.21 218.86 333.05C232.24 364 269 386.4 308.2 387.58C345.03 388.69 375.85 374.97 392.7 349.91C406.91 328.76 408.98 302.91 398.35 278.91C383.84 246.17 356.88 225.86 326.25 224.57C304.01 223.64 284.5 233.45 275.33 250.18C267.91 263.72 267.11 279.12 273 294.71C278.89 310.3 291.45 325.03 302.16 328.9C312.465 332.633 323.908 327.813 328.436 317.832C332.965 307.851 329.056 296.066 319.46 290.77C316.59 288.04 308.33 277.37 312.17 270.36C312.9 269.03 317.03 266.22 324.49 266.53C338.8 267.13 352.06 278.13 359.96 295.94C364.67 306.57 363.96 317.4 357.84 326.44C349.22 339.27 331.55 346.24 309.47 345.57C286.7 344.88 264.31 332.3 257.37 316.3C244.59 286.81 242.16 266.21 249.23 247.41C254.8 232.61 266.3 216.61 278.54 206.65C291.62 196 310.61 191.27 332 193.24C355 195.35 378.06 205.02 397 220.46C416.94 236.7 429.43 257.23 434.13 281.46C438.06 302.68 436.109 324.57 428.49 344.76C415.65 378.86 401.91 394.17 375.99 403.26C325.99 420.79 252.51 418 214.7 378.26C177.05 338.73 162.41 298.59 168.64 251.96C176.06 196.41 187.44 164.22 232.03 131.46C252.03 116.78 279.32 104.72 301.6 100.73C350.6 91.9501 397.66 99.3801 467.9 164.15C497.08 191.05 517.24 240.26 520.53 292.58C524.15 350.02 502.62 409.12 462.94 450.66C436.12 478.73 394.57 498.54 345.94 506.43C299.56 513.95 252.25 509.58 216.13 494.43C186.85 482.15 157.25 457.21 132.79 424.19C109.74 393.08 92.33 356 85.09 322.46C75.39 277.6 77.34 229.11 90.9 178.35C97.51 153.58 134.54 103.55 159.2 86.0501C165.453 81.7617 168.909 74.4355 168.241 66.8827C167.574 59.3298 162.886 52.7233 155.978 49.5982C149.07 46.4731 141.013 47.3147 134.9 51.8001C105.09 73.0001 60.21 130.5 50.32 167.51C35 224.78 32.91 279.89 44 331.33C52.58 371.05 72.14 412.93 99.06 449.27C128.38 488.83 163.25 517.86 199.91 533.27C229.49 545.68 264.91 552.1 301.68 552.1C318.762 552.094 335.817 550.72 352.68 547.99C410.26 538.64 460.2 514.42 493.3 479.77C541 429.86 566.83 358.93 562.49 290Z" fill="#EAF3F3" blush:i="0.0.0.0"/></g></g><g id="Master/Hands/Pinch" blush:has-customizable-colors="true" blush:component="Master/Hands/Pinch" blush:width="600" blush:height="600" blush:i="0.1" blush:value="Pinch" transform="scale(1 1)" blush:viewBox="0 0 599.9999999999999 599.9999999999999"><g id="Master/Hands/Pinch" blush:has-customizable-colors="true" blush:viewBox="0 0 599.9999999999999 599.9999999999999" blush:i="0.1.0"><g id="base" blush:i="0.1.0.0"><path id="Path" d="M331.769 211.773C338.264 199.143 333.937 190.527 322.135 187.48C312.9 185.095 299.667 186.495 291.031 190.43C283.667 193.794 277.798 199.164 269.766 208.709C268.827 209.824 265.384 213.979 264.599 214.913C262.496 217.417 255.792 225.594 254.902 226.665C253.877 227.898 252.924 229.031 252.014 230.096C252.454 224.534 252.613 220.092 252.438 215.603C251.858 200.727 247.468 190.776 237.372 187.65C232.041 186.045 226.393 188.821 224.412 194.006C222.415 199.586 220.782 205.243 219.508 210.987C217.86 217.54 215.874 223.37 211.924 233.84C211.728 234.358 211.678 234.491 211.189 235.784C209.113 241.277 208.131 243.93 207.012 247.13C206.952 247.302 206.952 247.302 206.893 247.473C206.329 249.105 204.347 255.14 203.996 256.177C201.981 262.132 200.338 266.097 198.436 269.193C195.15 274.545 181.549 278.09 140.821 284.666C133.014 285.928 119.298 286.962 101.406 287.782C91.1406 288.252 28.1384 288.622 17.1357 288.904C13.2844 289.003 9.70827 289.083 6.49923 289.147C5.37633 289.169 4.37962 289.188 3.52058 289.203C3.00561 289.212 2.65126 289.217 2.469 289.22C1.37665 289.237 0.5 290.128 0.5 291.22V410.72C0.5 411.825 1.39543 412.72 2.5 412.72C7.02228 412.72 12.0524 412.821 18.8701 413.032C22.5025 413.144 88.7308 413.636 91.284 413.72C110.72 414.358 127.249 414.69 146.997 414.72C154.363 414.72 160.379 414.772 176.602 414.95C180.06 414.988 182.13 415.011 184.34 415.033C201.289 415.207 212.339 415.237 222.032 415.08C246.095 414.719 270.086 412.323 293.746 407.916C307.631 405.393 363.986 386.277 377.918 378.982C383.818 375.9 389.974 371.314 393.844 366.588C399.212 360.032 400.139 353.372 395.03 347.666C392.383 344.714 388.837 343.408 384.22 343.315C380.947 343.249 378.792 343.539 371.133 344.844C364.329 346.003 360.522 346.434 356.303 346.301C342.29 345.858 329.25 333.226 323.862 316.681C317.624 297.168 330.975 272.74 350.438 268.371C357.144 266.849 363.907 268.615 376.224 273.803C377.353 274.279 377.986 274.602 380.66 276.022C384.104 277.852 386.006 278.705 388.244 279.232C390.934 279.864 393.426 279.706 395.773 278.584C404.028 274.63 404.421 262.444 398.543 254.828C392.363 246.826 383.52 239.786 374.945 236.344C359.385 230.116 344.316 230.342 327.462 236.419C324.718 237.418 322.01 238.505 319.342 239.681C324.775 226.339 327.686 219.73 331.769 211.773Z" fill="#b17606" blush:color="Skin-500" blush:i="0.1.0.0.0"/><path id="Path" d="M290.546 256.27C297.774 250.281 308.146 244.316 318.654 239.904C319.673 239.477 320.152 238.304 319.724 237.286C319.297 236.267 318.124 235.788 317.106 236.216C306.258 240.77 295.551 246.928 287.994 253.19C287.143 253.895 287.025 255.156 287.73 256.006C288.435 256.857 289.696 256.975 290.546 256.27Z" fill="#744b15" blush:color="Skin-700" blush:i="0.1.0.0.1"/><path id="Path" d="M237.44 245.703C242.652 241.476 247.505 236.823 251.948 231.794C252.68 230.967 252.602 229.703 251.774 228.971C250.946 228.24 249.682 228.318 248.951 229.146C244.653 234.009 239.96 238.508 234.92 242.597C234.062 243.293 233.931 244.552 234.626 245.41C235.322 246.268 236.582 246.399 237.44 245.703Z" fill="#744b15" blush:color="Skin-700" blush:i="0.1.0.0.2"/><path id="Path" d="M314.749 186.549C311.548 187.54 307.261 192.013 303.236 197.322C301.869 199.127 300.461 201.021 298.693 203.426C297.921 204.476 295.226 208.155 295.214 208.172C290.064 215.193 286.936 219.309 283.489 223.475C281.816 225.498 280.472 227.193 277.64 230.817L277.424 231.093C273.77 235.77 272.017 237.958 269.824 240.505C269.156 241.283 268.506 242.074 267.575 243.231C267.39 243.461 266.747 244.262 266.74 244.27C264.336 247.261 263.012 248.787 261.441 250.262C260.636 251.018 260.596 252.283 261.352 253.089C262.108 253.894 263.374 253.934 264.179 253.178C265.928 251.536 267.34 249.908 269.858 246.775C269.866 246.766 270.507 245.967 270.691 245.739C271.598 244.612 272.225 243.85 272.857 243.113C275.103 240.504 276.884 238.282 280.576 233.556L280.792 233.28C283.601 229.685 284.93 228.009 286.571 226.025C290.081 221.782 293.246 217.618 298.439 210.538C298.453 210.518 301.147 206.842 301.916 205.795C303.674 203.404 305.07 201.525 306.424 199.738C309.847 195.223 313.893 191.002 315.932 190.371C316.987 190.044 317.577 188.924 317.251 187.869C316.924 186.813 315.804 186.223 314.749 186.549Z" fill="#744b15" blush:color="Skin-700" blush:i="0.1.0.0.3"/></g><g id="Pinch/Wear" blush:component="Pinch/Wear" blush:defaultValue="Gloves 1" blush:width="600" blush:height="600" blush:i="0.1.0.1" blush:value="Hoodie 1" transform="scale(1 1)" blush:viewBox="0 189 191.99999999999983 299.99999999999994"><g id="Pinch/Wear/Hoodie 1" blush:viewBox="0 189 191.99999999999983 299.99999999999994" blush:i="0.1.0.1.0"><g id="clothing" blush:i="0.1.0.1.0.0"><path id="Path" d="M189.24 414.15C182.82 383.88 178.57 351.23 176.14 329.15C174.84 317.39 174.37 278.01 174.37 277.61C174.361 277.046 174.114 276.512 173.69 276.14C173.266 275.765 172.703 275.587 172.14 275.65C171.91 275.65 149.32 278.31 138.4 279.53C124.86 281.04 109 282.88 96.52 284.67C100.7 277.885 101.078 269.421 97.52 262.29C93.41 253.82 84.95 248.29 76.52 248.57C73.01 248.68 67.34 249.92 62.31 255.76C65.4 230.29 61.66 201.49 41.66 191.99C28.94 185.99 17.44 190.69 8.85 195.48C5.65485 197.145 2.68155 199.204 0 201.61V469.75C7.73 480.89 17.6 486.28 30 486.28C32.948 486.266 35.8891 485.995 38.79 485.47C48.53 483.76 55.5 476.77 58.61 465.92C60.8059 467.199 63.1325 468.238 65.55 469.02C74.79 472.02 84 470.82 91.47 465.75C96.95 462.03 102.05 455.58 105.13 448.48C107.74 442.48 110.05 433.31 106.23 423.93C105.675 422.576 104.927 421.31 104.01 420.17C114.73 419.78 136.84 418.97 150.09 418.52C162.23 418.1 187.09 416.58 187.38 416.52C187.96 416.486 188.497 416.201 188.85 415.74C189.201 415.29 189.343 414.711 189.24 414.15Z" fill="#2AC28B" blush:i="0.1.0.1.0.0.0"/><path id="Combined Shape" fill-rule="evenodd" clip-rule="evenodd" d="M86.9063 351.981C85.0626 314.508 85.5986 291.979 89.8983 286.329C90.5672 285.45 91.822 285.28 92.701 285.949C93.58 286.617 93.7504 287.872 93.0815 288.751C91.5587 290.752 90.6105 296.52 90.1879 305.502C90.354 305.428 90.533 305.376 90.7218 305.35C94.7969 304.777 99.4152 304.373 105.491 304.001C106.7 303.928 107.962 303.855 109.455 303.773C110.038 303.741 110.632 303.708 111.415 303.666L113.351 303.561C120.352 303.182 123.89 302.935 127.14 302.545C138.772 301.137 150.396 300.139 162.157 299.533C163.26 299.476 164.2 300.324 164.257 301.427C164.314 302.53 163.466 303.471 162.363 303.527C150.693 304.129 139.16 305.119 127.619 306.516C124.25 306.921 120.658 307.171 113.567 307.556L111.631 307.66C110.849 307.702 110.256 307.735 109.676 307.767C108.189 307.849 106.935 307.921 105.735 307.994C99.7548 308.359 95.2282 308.756 91.278 309.311C90.8393 309.372 90.4139 309.287 90.0518 309.091C89.9784 311.574 89.9384 314.259 89.931 317.137C90.0609 317.087 90.1982 317.049 90.3414 317.026C98.7149 315.675 109.651 314.39 122.543 313.179C133.423 312.157 145.076 311.243 156.729 310.45C160.807 310.173 164.593 309.93 167.992 309.724C169.182 309.652 170.239 309.589 171.15 309.537C171.469 309.518 171.747 309.503 171.983 309.489L172.27 309.473C173.373 309.412 174.316 310.257 174.377 311.36C174.438 312.463 173.593 313.406 172.49 313.467L172.208 313.483C171.974 313.496 171.697 313.512 171.38 313.53C170.473 313.582 169.42 313.645 168.234 313.717C164.845 313.922 161.068 314.164 157 314.441C145.38 315.231 133.759 316.143 122.918 317.161C110.106 318.365 99.2487 319.641 90.9784 320.975C90.6151 321.033 90.2589 320.99 89.9389 320.866C89.9962 329.659 90.3235 340.037 90.9015 351.784C91.1347 356.523 91.4032 361.416 91.7108 366.581C92.0317 366.31 92.4403 366.137 92.8921 366.113C98.9963 365.784 106.616 365.381 115.428 364.922L116.984 364.841C125.738 364.385 135.116 363.901 144.494 363.421C147.776 363.253 150.824 363.097 153.56 362.958L156.1 362.828L156.998 362.783C158.102 362.727 159.041 363.576 159.097 364.679C159.153 365.782 158.304 366.722 157.201 366.778L156.303 366.823L153.763 366.953C151.028 367.092 147.981 367.248 144.699 367.416C135.321 367.896 125.944 368.379 117.192 368.835L115.637 368.916C106.827 369.375 99.2091 369.778 93.1077 370.107C92.6652 370.131 92.2485 370.009 91.9044 369.784C92.0503 372.165 92.2044 374.606 92.3668 377.119C92.5949 380.645 92.8337 384.225 93.1132 388.33C93.2328 390.086 93.5516 394.728 93.7072 396.993C107.086 396.848 118.125 396.046 142.404 393.795C159.069 392.25 166.462 391.634 175.73 391.123C176.833 391.062 177.776 391.907 177.837 393.01C177.898 394.113 177.053 395.056 175.95 395.117C166.749 395.624 159.388 396.237 142.774 397.778C118.628 400.017 107.496 400.83 94.1533 400.988C94.5171 402.885 95.1134 404.799 95.9003 406.719C96.1914 406.527 96.5365 406.409 96.9101 406.392C98.3434 406.328 99.9118 406.264 101.88 406.188C101.265 406.212 109.543 405.9 111.949 405.803C115.993 405.639 119.439 405.477 122.728 405.29C127.159 405.038 131.149 404.747 134.811 404.399C135.91 404.295 136.886 405.101 136.991 406.201C137.095 407.3 136.289 408.277 135.189 408.381C131.473 408.735 127.433 409.029 122.955 409.283C119.642 409.472 116.176 409.635 112.111 409.799C109.699 409.897 101.414 410.209 102.034 410.185C100.309 410.251 98.8935 410.309 97.6088 410.365C98.7736 412.585 100.156 414.808 101.692 417.019C102.323 417.926 102.098 419.173 101.191 419.803C100.284 420.433 99.0375 420.208 98.4073 419.301C93.6685 412.479 90.2973 405.615 89.8046 398.547C89.8138 398.682 89.2848 390.986 89.1225 388.602C88.8426 384.492 88.6035 380.908 88.3752 377.377C87.7775 368.135 87.2934 359.849 86.9063 351.981Z" fill="#1CB377" blush:i="0.1.0.1.0.0.1"/></g></g></g><g id="Pinch/Item" blush:component="Pinch/Item" blush:defaultValue="Chicken" blush:width="600" blush:height="600" blush:i="0.1.0.2" blush:value="Empty" transform="scale(600 600)" blush:viewBox="1.75 1.75 0 0"><g id="Pinch/Item/Empty" stroke="none" stroke-width="1" fill="none" fill-rule="evenodd" fill-opacity="0" blush:viewBox="1.75 1.75 0 0" blush:i="0.1.0.2.0"/></g></g></g><g id="Random" blush:component="Random" blush:defaultValue="Element 25" blush:width="600" blush:height="600" transform="translate(500 0) scale(1 1)" blush:i="0.2" blush:value="Element 44" blush:viewBox="213 270 174.00000000000014 63.00000000000006"><g id="Random/Element 44" blush:viewBox="213 270 174.00000000000014 63.00000000000006" blush:i="0.2.0"><g id="key" blush:i="0.2.0.0"><g id="stickers_expanded" blush:i="0.2.0.0.0"><path id="Shape" fill-rule="evenodd" clip-rule="evenodd" d="M381.43 271.049C383.003 271.647 384.144 273.031 384.43 274.689C384.52 275.659 384.21 277.129 382.2 278.599C380.613 279.708 378.848 280.537 376.98 281.049C377.26 282.799 377.56 284.529 377.93 286.299C378.539 289.257 378.963 292.302 379.376 295.263C379.404 295.465 379.432 295.667 379.46 295.869L379.495 296.122C379.673 297.429 379.853 298.743 380.05 300.049C380.121 300.547 380.224 301.084 380.33 301.639C380.343 301.709 380.357 301.779 380.37 301.849L380.373 301.863C380.862 304.41 381.418 307.303 380.37 309.539C379.461 311.094 377.802 312.059 376 312.079H375.8C374.031 312.115 372.384 311.178 371.51 309.639C370.946 308.587 370.487 307.481 370.14 306.339C369.06 303.249 368.29 301.379 365.98 301.629C364.37 301.809 363.93 303.119 363.37 305.249L363.361 305.283C362.883 307.087 362.296 309.301 360.01 309.619C355.76 310.239 352.95 306.189 351.63 297.619C351.247 295.183 350.594 292.167 349.955 289.217L349.92 289.059L349.35 286.379L348.86 286.469C347.954 286.637 347.025 286.81 346.074 286.986C328.577 290.233 303.805 294.83 285.86 297.979C282.73 298.529 279 299.089 276 299.529V299.999C276.023 315.603 264.159 328.656 248.625 330.12C233.09 331.584 218.996 320.977 216.104 305.644C213.211 290.311 222.472 275.298 237.472 271.001C252.473 266.705 268.277 274.54 273.94 289.079C283.91 287.589 297.36 285.159 312.7 282.079C315.866 281.448 319.054 280.794 322.258 280.138C322.808 280.025 323.359 279.912 323.91 279.799L324.127 279.755C336.739 277.168 349.762 274.498 362.39 272.579C363.61 272.399 364.93 272.179 366.29 271.949L366.344 271.94C372.527 270.903 378.908 269.833 381.43 271.049ZM225.58 299.986C225.573 311.145 234.611 320.198 245.77 320.209C256.935 320.209 265.989 311.164 266 299.999C266 288.84 256.956 279.793 245.797 279.789C234.638 279.785 225.588 288.827 225.58 299.986Z" fill="#FCD400" blush:i="0.2.0.0.0.0"/></g></g></g></g></g></svg>